<svg xmlns="http://www.w3.org/2000/svg" width="436" height="524" viewBox="0 0 436 524"><rect width="100%" height="100%" fill="#DDDDDD"/><path fill="#999999" d="M106.235 262.19q0 2.55-.85 4.67-.85 2.13-2.39 3.67-1.53 1.53-3.69 2.38-2.16.85-4.8.85h-8.82v-23.14h8.82q2.64 0 4.8.86 2.16.86 3.69 2.38 1.54 1.53 2.39 3.66.85 2.13.85 4.67Zm-4.42 0q0-1.9-.5-3.41-.51-1.52-1.46-2.56-.95-1.05-2.3-1.61-1.36-.56-3.05-.56h-4.5v16.29h4.5q1.69 0 3.05-.56 1.35-.56 2.3-1.61.95-1.05 1.46-2.56.5-1.51.5-3.42Zm10.7 1.47h7.46q0-.76-.22-1.44-.21-.68-.64-1.2-.44-.51-1.1-.8-.66-.3-1.54-.3-1.72 0-2.7.98-.98.97-1.26 2.76Zm10.08 2.39h-10.16q.1 1.26.45 2.18.35.92.93 1.52.58.6 1.37.9.79.29 1.75.29t1.66-.22q.69-.22 1.21-.5.52-.27.91-.49.4-.23.76-.23.5 0 .74.37l1.14 1.44q-.66.77-1.48 1.29-.81.52-1.7.83-.89.31-1.81.44t-1.78.13q-1.71 0-3.19-.57-1.47-.57-2.56-1.68-1.08-1.11-1.71-2.75-.62-1.64-.62-3.8 0-1.68.54-3.16.55-1.48 1.56-2.58 1.02-1.09 2.48-1.73 1.47-.64 3.31-.64 1.55 0 2.86.49 1.31.5 2.26 1.45.94.95 1.48 2.34.53 1.38.53 3.16 0 .89-.19 1.21-.19.31-.74.31Zm7.84-3.91v7.36q.68.82 1.47 1.16.79.33 1.67.33.91 0 1.64-.33.73-.32 1.24-1.02t.78-1.78q.28-1.08.28-2.58 0-2.7-.9-3.91t-2.58-1.21q-1.13 0-1.98.52-.85.52-1.62 1.46Zm0-12.16v9.38q1-1.04 2.2-1.66 1.21-.61 2.76-.61 1.43 0 2.57.56 1.15.56 1.95 1.61.81 1.04 1.24 2.53.44 1.49.44 3.35 0 2-.5 3.63t-1.42 2.79q-.92 1.16-2.21 1.8-1.3.64-2.88.64-.77 0-1.39-.15-.63-.15-1.16-.43-.52-.27-.96-.66-.44-.39-.84-.87l-.18 1.1q-.1.42-.33.59-.23.18-.63.18h-2.61v-23.78h3.95Zm21.48 7.11q1.82 0 3.32.59 1.49.59 2.56 1.68 1.06 1.09 1.64 2.66.57 1.56.57 3.5 0 1.95-.57 3.52-.58 1.57-1.64 2.67-1.07 1.11-2.56 1.7-1.5.59-3.32.59-1.84 0-3.35-.59-1.5-.59-2.57-1.7-1.06-1.1-1.64-2.67-.59-1.57-.59-3.52 0-1.94.59-3.5.58-1.57 1.64-2.66 1.07-1.09 2.57-1.68 1.51-.59 3.35-.59Zm0 13.87q2.04 0 3.03-1.38.98-1.37.98-4.03 0-2.65-.98-4.05-.99-1.39-3.03-1.39-2.08 0-3.08 1.4t-1 4.04q0 2.64 1 4.03 1 1.38 3.08 1.38Zm14.6-12.62.24 1.85q.77-1.47 1.83-2.31 1.05-.84 2.49-.84 1.14 0 1.83.5l-.26 2.96q-.08.28-.23.4-.15.12-.41.12-.24 0-.71-.08t-.92-.08q-.66 0-1.17.2-.51.19-.92.55-.41.36-.72.87t-.58 1.17v10.11h-3.95v-16.42h2.32q.6 0 .84.22t.32.78Zm17.12 11.18v-2.77q-1.71.08-2.88.3-1.16.21-1.87.55-.7.34-1.01.78-.3.45-.3.98 0 1.04.62 1.49.61.45 1.6.45 1.22 0 2.11-.44.89-.44 1.73-1.34Zm-8.35-8.62-.7-1.27q2.83-2.59 6.81-2.59 1.44 0 2.58.47 1.14.47 1.92 1.31.78.84 1.19 2.01.41 1.17.41 2.56v10.37h-1.79q-.56 0-.87-.17-.3-.17-.48-.68l-.35-1.18q-.62.56-1.21.98-.6.43-1.24.71-.64.29-1.36.44-.73.16-1.61.16-1.04 0-1.92-.28-.88-.28-1.52-.84-.64-.56-.99-1.4-.36-.83-.36-1.93 0-.63.21-1.24.21-.62.68-1.18.47-.56 1.23-1.05.75-.5 1.84-.87 1.1-.37 2.56-.6 1.45-.23 3.32-.28v-.96q0-1.65-.7-2.44t-2.03-.79q-.96 0-1.59.22-.64.23-1.12.51-.48.28-.87.5-.39.23-.87.23-.42 0-.7-.22-.29-.22-.47-.5Zm19.87-10.92v9.12q.96-.89 2.12-1.45 1.15-.56 2.7-.56 1.34 0 2.38.45 1.04.46 1.74 1.28.7.83 1.06 1.97.36 1.15.36 2.52v10.45h-3.96v-10.45q0-1.5-.68-2.33-.69-.82-2.1-.82-1.02 0-1.92.46-.9.47-1.7 1.27v11.87h-3.95v-23.78h3.95Zm43.04 12.21q0 2.55-.84 4.67-.85 2.13-2.39 3.67-1.53 1.53-3.69 2.38-2.16.85-4.8.85h-8.82v-23.14h8.82q2.64 0 4.8.86 2.16.86 3.69 2.38 1.54 1.53 2.39 3.66.84 2.13.84 4.67Zm-4.41 0q0-1.9-.51-3.41-.5-1.52-1.45-2.56-.95-1.05-2.31-1.61-1.35-.56-3.04-.56h-4.5v16.29h4.5q1.69 0 3.04-.56 1.36-.56 2.31-1.61t1.45-2.56q.51-1.51.51-3.42Zm7.71-4.85h3.97v16.42h-3.97v-16.42Zm4.51-4.78q0 .51-.21.96-.2.45-.55.78-.34.34-.81.54-.46.2-.99.2-.51 0-.97-.2-.45-.2-.79-.54-.33-.33-.53-.78t-.2-.96q0-.53.2-.99.2-.47.53-.8.34-.34.79-.54.46-.2.97-.2.53 0 .99.2.47.2.81.54.35.33.55.8.21.46.21.99Zm6.61 11.1h7.46q0-.76-.22-1.44-.22-.68-.65-1.2-.43-.51-1.09-.8-.67-.3-1.55-.3-1.71 0-2.69.98-.99.97-1.26 2.76Zm10.08 2.39h-10.16q.1 1.26.45 2.18.35.92.93 1.52.57.6 1.36.9.8.29 1.76.29t1.65-.22q.7-.22 1.22-.5.52-.27.91-.49.39-.23.76-.23.5 0 .74.37l1.13 1.44q-.65.77-1.47 1.29t-1.7.83q-.89.31-1.81.44t-1.79.13q-1.71 0-3.18-.57-1.47-.57-2.56-1.68-1.09-1.11-1.71-2.75-.63-1.64-.63-3.8 0-1.68.55-3.16.54-1.48 1.56-2.58 1.01-1.09 2.48-1.73 1.46-.64 3.3-.64 1.55 0 2.87.49 1.31.5 2.25 1.45.95.95 1.48 2.34.54 1.38.54 3.16 0 .89-.19 1.21-.2.31-.74.31Zm7.38-7.71.24 1.85q.76-1.47 1.82-2.31 1.06-.84 2.5-.84 1.13 0 1.82.5l-.26 2.96q-.08.28-.23.4-.15.12-.41.12-.24 0-.71-.08t-.92-.08q-.65 0-1.17.2-.51.19-.92.55-.4.36-.72.87-.31.51-.58 1.17v10.11h-3.95v-16.42h2.32q.61 0 .85.22t.32.78Zm19.36.78-.9 1.42q-.16.26-.34.36-.17.11-.44.11-.29 0-.62-.16t-.76-.36q-.43-.2-.98-.36-.56-.16-1.31-.16-1.17 0-1.83.49-.66.5-.66 1.3 0 .53.34.89t.91.63q.57.27 1.29.49.72.21 1.46.47.75.26 1.47.58.72.33 1.29.84.56.5.91 1.2.34.71.34 1.7 0 1.18-.42 2.18-.43 1-1.26 1.73-.83.73-2.05 1.14-1.23.41-2.83.41-.85 0-1.65-.16-.81-.15-1.56-.42-.74-.27-1.37-.64-.63-.37-1.11-.8l.91-1.5q.17-.28.41-.42.24-.14.61-.14t.7.2q.33.21.76.45.43.24 1.01.45.59.21 1.48.21.71 0 1.21-.17.51-.17.83-.44.33-.27.48-.63.16-.36.16-.75 0-.57-.35-.94-.34-.37-.91-.64-.57-.27-1.3-.49-.72-.21-1.48-.47t-1.49-.6q-.73-.34-1.3-.87-.57-.53-.91-1.3-.34-.77-.34-1.85 0-1.01.4-1.92.4-.92 1.17-1.6.78-.68 1.94-1.08 1.16-.41 2.68-.41 1.69 0 3.09.56 1.39.56 2.32 1.47Zm7.1-9.14v9.12q.96-.89 2.11-1.45 1.15-.56 2.71-.56 1.34 0 2.38.45 1.04.46 1.74 1.28.69.83 1.05 1.97.36 1.15.36 2.52v10.45h-3.95v-10.45q0-1.5-.69-2.33-.69-.82-2.09-.82-1.03 0-1.92.46-.9.47-1.7 1.27v11.87h-3.95v-23.78h3.95Zm22.77 19.54v-2.77q-1.71.08-2.88.3-1.17.21-1.87.55-.71.34-1.01.78-.31.45-.31.98 0 1.04.62 1.49.62.45 1.61.45 1.21 0 2.1-.44.89-.44 1.74-1.34Zm-8.35-8.62-.71-1.27q2.83-2.59 6.82-2.59 1.44 0 2.57.47 1.14.47 1.92 1.31.79.84 1.2 2.01.4 1.17.4 2.56v10.37h-1.79q-.56 0-.86-.17-.31-.17-.48-.68l-.35-1.18q-.63.56-1.22.98-.59.43-1.23.71-.64.29-1.37.44-.73.16-1.61.16-1.04 0-1.92-.28-.88-.28-1.52-.84-.64-.56-.99-1.4-.35-.83-.35-1.93 0-.63.21-1.24.2-.62.68-1.18.47-.56 1.22-1.05.75-.5 1.85-.87 1.09-.37 2.55-.6 1.46-.23 3.33-.28v-.96q0-1.65-.71-2.44-.7-.79-2.03-.79-.96 0-1.59.22-.63.23-1.11.51-.48.28-.87.5-.4.23-.88.23-.41 0-.7-.22t-.46-.5Zm36.35-3.56h3.01l-5.22 16.42h-3.17q-.54 0-.75-.7l-2.94-9.49q-.15-.48-.27-.95-.12-.48-.2-.96-.09.48-.21.97t-.27.97l-2.99 9.46q-.19.7-.85.7h-3.04l-5.2-16.42h3.15q.44 0 .74.21t.4.53l2.35 8.77q.18.72.31 1.41.14.68.24 1.37.17-.69.37-1.37.2-.69.43-1.41l2.72-8.8q.09-.32.37-.53.28-.21.68-.21h1.75q.41 0 .71.21.29.21.39.53l2.64 8.8q.21.72.39 1.41.19.7.36 1.39.21-1.36.59-2.8l2.42-8.77q.11-.32.4-.53.29-.21.69-.21Z"/></svg>